<svg aria-hidden="true" style="position: absolute; width: 0; height: 0; overflow: hidden;" version="1.1"
  xmlns="http://www.w3.org/2000/svg" xmlns:xlink="http://www.w3.org/1999/xlink">
  <defs>
    <symbol id="icon-logo" viewBox="0 0 26 32">
      <path
        d="M8.664 23.864c-0.503-0.585-1.024-1.143-1.582-1.741-3.108-3.323-7.299-7.811-7.074-13.145 0.175-4.178 3.288-6.92 7.318-8.173 3.568-1.073 7.378-1.073 10.947 0 4.030 1.252 7.143 3.995 7.318 8.177 0.221 5.334-3.97 9.818-7.074 13.145-0.563 0.599-1.079 1.152-1.586 1.741l-0.429 0.498v0.041h-7.378l-0.461-0.53-0-0.014zM13.815 3.113v17.597c3.228-6.728 6.599-13.954 2.545-17.236v-0c-0.837-0.191-1.688-0.311-2.545-0.361v0zM11.942 20.829v-17.725c-0.861 0.042-1.717 0.156-2.559 0.338-4.15 3.282-0.715 10.6 2.559 17.369v0.019zM19.896 4.914c1.416 3.958-0.77 9.402-3.292 14.745 2.684-2.88 6.054-6.664 5.893-10.558-0.074-1.792-1.084-3.199-2.601-4.187v0zM9.203 19.882c-2.587-5.453-4.865-11.029-3.366-15.056-1.586 1.001-2.656 2.427-2.735 4.274-0.166 3.999 3.385 7.875 6.101 10.782v0z">
      </path>
      <path
        d="M16.499 25.089l-0.355 2.857v2.381c0 0.914-0.89 1.673-1.978 1.673h-2.697c-1.088 0-1.978-0.754-1.978-1.673v-2.285l-0.364-2.939h1.513l0.249 1.993h3.85l0.249-1.993 1.512-0.014z">
      </path>
    </symbol>
  </defs>
</svg>